PathFileType  4	(X/Y/Z) C:\MyRepositories_Xander\mocap-processing\Testing_HJC_Function\TRCs_w_HJCs
DataRate	CameraRate	NumFrames	NumMarkers	Units	OrigDataRate	OrigDataStartFrame	OrigNumFrames
  240.0		  240.0		    4		    151		 mm	  240.0	      409	    544
Frame#	Time	LFHD			RFHD			LBHD			C7			T10			CLAV			STRN			RBAK			LSHO			LUPA			LELB			LFRM			LWRA			LWRB			LFIN			RSHO			RUPA			RELB			RFRM			RWRA			RWRB			RFIN			LASI			RASI			LPSI			RPSI			SACR			LTHI			LKNE			LMKN			LTIB			LANK			LMED			LHEE			LTOE			RTHI			RKNE			RMKN			RTIB			RANK			RMED			RHEE			RTOE			PELO			PELA			PELL			PELP			LFEO			LFEA			LFEL			LFEP			LTIO			LTIA			LTIL			LTIP			LFOO			LFOA			LFOL			LFOP			LTOO			LTOA			LTOL			LTOP			RFEO			RFEA			RFEL			RFEP			RTIO			RTIA			RTIL			RTIP			RFOO			RFOA			RFOL			RFOP			RTOO			RTOA			RTOL			RTOP			HEDO			HEDA			HEDL			HEDP			LCLO			LCLA			LCLL			LCLP			RCLO			RCLA			RCLL			RCLP			TRXO			TRXA			TRXL			TRXP			LHUO			LHUA			LHUL			LHUP			LRAO			LRAA			LRAL			LRAP			LHNO			LHNA			LHNL			LHNP			RHUO			RHUA			RHUL			RHUP			RRAO			RRAA			RRAL			RRAP			RHNO			RHNA			RHNL			RHNP			RBHD			*120			*121			*122			LHipAngles			LKneeAngles			LAbsAnkleAngle			LAnkleAngles			RHipAngles			RKneeAngles			RAnkleAngles			RAbsAnkleAngle			LPelvisAngles			RPelvisAngles			LFootProgressAngles			RFootProgressAngles			RNeckAngles			LNeckAngles			RSpineAngles			LSpineAngles			LShoulderAngles			LElbowAngles			LWristAngles			RShoulderAngles			RElbowAngles			RWristAngles			RThoraxAngles			LThoraxAngles			RHeadAngles			LHeadAngles			RHJC			LHJC			
		X1	Y1	Z1	X2	Y2	Z2	X3	Y3	Z3	X4	Y4	Z4	X5	Y5	Z5	X6	Y6	Z6	X7	Y7	Z7	X8	Y8	Z8	X9	Y9	Z9	X10	Y10	Z10	X11	Y11	Z11	X12	Y12	Z12	X13	Y13	Z13	X14	Y14	Z14	X15	Y15	Z15	X16	Y16	Z16	X17	Y17	Z17	X18	Y18	Z18	X19	Y19	Z19	X20	Y20	Z20	X21	Y21	Z21	X22	Y22	Z22	X23	Y23	Z23	X24	Y24	Z24	X25	Y25	Z25	X26	Y26	Z26	X27	Y27	Z27	X28	Y28	Z28	X29	Y29	Z29	X30	Y30	Z30	X31	Y31	Z31	X32	Y32	Z32	X33	Y33	Z33	X34	Y34	Z34	X35	Y35	Z35	X36	Y36	Z36	X37	Y37	Z37	X38	Y38	Z38	X39	Y39	Z39	X40	Y40	Z40	X41	Y41	Z41	X42	Y42	Z42	X43	Y43	Z43	X44	Y44	Z44	X45	Y45	Z45	X46	Y46	Z46	X47	Y47	Z47	X48	Y48	Z48	X49	Y49	Z49	X50	Y50	Z50	X51	Y51	Z51	X52	Y52	Z52	X53	Y53	Z53	X54	Y54	Z54	X55	Y55	Z55	X56	Y56	Z56	X57	Y57	Z57	X58	Y58	Z58	X59	Y59	Z59	X60	Y60	Z60	X61	Y61	Z61	X62	Y62	Z62	X63	Y63	Z63	X64	Y64	Z64	X65	Y65	Z65	X66	Y66	Z66	X67	Y67	Z67	X68	Y68	Z68	X69	Y69	Z69	X70	Y70	Z70	X71	Y71	Z71	X72	Y72	Z72	X73	Y73	Z73	X74	Y74	Z74	X75	Y75	Z75	X76	Y76	Z76	X77	Y77	Z77	X78	Y78	Z78	X79	Y79	Z79	X80	Y80	Z80	X81	Y81	Z81	X82	Y82	Z82	X83	Y83	Z83	X84	Y84	Z84	X85	Y85	Z85	X86	Y86	Z86	X87	Y87	Z87	X88	Y88	Z88	X89	Y89	Z89	X90	Y90	Z90	X91	Y91	Z91	X92	Y92	Z92	X93	Y93	Z93	X94	Y94	Z94	X95	Y95	Z95	X96	Y96	Z96	X97	Y97	Z97	X98	Y98	Z98	X99	Y99	Z99	X100	Y100	Z100	X101	Y101	Z101	X102	Y102	Z102	X103	Y103	Z103	X104	Y104	Z104	X105	Y105	Z105	X106	Y106	Z106	X107	Y107	Z107	X108	Y108	Z108	X109	Y109	Z109	X110	Y110	Z110	X111	Y111	Z111	X112	Y112	Z112	X113	Y113	Z113	X114	Y114	Z114	X115	Y115	Z115	X116	Y116	Z116	X117	Y117	Z117	X118	Y118	Z118	X119	Y119	Z119	X120	Y120	Z120	X121	Y121	Z121	X122	Y122	Z122	X123	Y123	Z123	X124	Y124	Z124	X125	Y125	Z125	X126	Y126	Z126	X127	Y127	Z127	X128	Y128	Z128	X129	Y129	Z129	X130	Y130	Z130	X131	Y131	Z131	X132	Y132	Z132	X133	Y133	Z133	X134	Y134	Z134	X135	Y135	Z135	X136	Y136	Z136	X137	Y137	Z137	X138	Y138	Z138	X139	Y139	Z139	X140	Y140	Z140	X141	Y141	Z141	X142	Y142	Z142	X143	Y143	Z143	X144	Y144	Z144	X145	Y145	Z145	X146	Y146	Z146	X147	Y147	Z147	X148	Y148	Z148	X149	Y149	Z149	X150	Y150	Z150	X151	Y151	Z151	

409	1.70000	-573.657	1651.659	226.373	-427.074	1658.101	228.054	-524.045	1534.124	342.866	-486.614	1421.338	359.957	-474.796	1214.709	397.263	-492.329	1364.914	215.484	-483.307	1149.677	166.339	-397.194	1355.411	388.728	-644.007	1428.061	327.312	-737.594	1276.434	303.326	-813.863	1209.572	270.994	-899.541	1142.100	254.892	-997.555	1099.602	242.045	-968.740	1058.905	213.537	-1014.970	1021.802	244.202	-326.407	1423.157	333.269	-252.614	1272.012	337.341	-199.700	1181.429	331.443	-100.952	1106.609	325.782	-2.580	1066.087	317.952	-35.484	1032.692	319.706	19.462	1010.843	354.829	-612.916	951.022	198.900	-354.683	931.615	210.522	-542.525	990.625	384.718	-427.445	980.681	387.081	-488.700	966.235	399.847	-704.252	663.781	282.811	-682.110	495.027	328.137	-552.583	469.873	334.863	-725.329	266.147	352.266	-685.228	95.463	374.952	-605.333	99.564	347.323	-645.339	86.312	425.606	-662.907	71.104	219.331	-265.101	639.447	291.850	-264.582	493.138	305.139	-395.679	461.447	317.548	-185.885	267.667	353.067	-193.258	95.086	357.261	-277.247	97.242	349.863	-230.613	84.856	424.666	-216.811	65.626	217.723	-492.713	856.683	261.447	-486.356	833.567	81.582	-673.478	870.268	253.312	-478.211	1036.147	238.896	-617.468	488.402	324.197	-646.970	424.135	-51.736	-997.302	527.335	347.349	-583.096	863.475	257.379	-649.310	97.307	362.531	-769.171	72.734	12.270	-999.151	137.250	479.447	-619.345	465.348	326.456	-675.757	85.781	221.887	-653.633	285.068	220.002	-874.325	107.985	238.798	-658.740	85.781	421.684	-681.429	85.781	155.288	-674.054	152.210	154.660	-747.618	93.182	160.925	-675.757	85.781	221.887	-326.831	481.346	312.653	-361.524	426.462	-60.885	-696.753	411.274	357.306	-402.331	849.890	265.515	-232.095	96.083	353.840	-200.023	64.049	-19.571	-596.074	4.083	330.471	-321.434	459.401	314.999	-206.709	86.583	212.281	-255.834	281.769	209.005	-401.462	37.349	199.292	-220.105	86.583	413.135	-202.244	86.583	145.330	-218.619	151.645	144.238	-267.161	70.171	141.001	-206.709	86.583	212.281	NaN	NaN	NaN	NaN	NaN	NaN	NaN	NaN	NaN	NaN	NaN	NaN	-652.066	1372.363	318.274	-744.474	1411.298	160.725	-625.660	1554.853	347.885	-491.940	1364.737	222.470	-319.134	1368.616	322.857	-222.085	1413.783	154.050	-293.175	1173.939	285.693	-491.940	1364.737	222.470	-491.940	1364.737	222.470	-502.680	1369.622	29.511	-299.154	1374.554	211.989	-482.406	1171.729	217.054	-802.403	1222.001	230.209	-686.216	1222.186	31.548	-932.267	1396.233	154.419	-652.066	1372.363	318.274	-985.251	1082.020	221.715	-936.400	1030.478	19.519	-1106.178	1244.262	151.141	-815.203	1212.202	229.614	-1061.812	969.959	232.664	-996.159	936.284	347.096	-970.340	900.335	159.694	-985.251	1082.020	221.715	-213.159	1182.018	287.722	-386.448	1103.420	182.473	-290.776	1102.725	474.730	-319.134	1368.616	322.857	-18.517	1048.518	311.902	-117.091	884.815	201.578	-97.278	968.057	501.665	-199.534	1172.673	289.414	66.782	961.665	361.680	34.582	999.782	483.366	161.569	1052.774	358.223	-18.517	1048.518	311.902	NaN	NaN	NaN	-482.842	1381.703	366.538	-477.872	1531.520	339.639	NaN	NaN	NaN	0.474	-6.218	2.945	-0.853	-14.888	4.436	0.000	0.000	-5.165	0.006	13.589	-5.314	16.065	7.444	-0.451	2.353	-10.633	0.938	-0.008	-0.224	-5.004	0.000	0.000	-5.004	-4.584	2.014	-7.162	4.584	-2.014	-7.162	6.357	-4.868	90.000	14.157	-3.816	90.000	NaN	NaN	NaN	NaN	NaN	NaN	7.855	-4.761	8.393	-7.855	4.761	8.393	-46.463	-155.540	-23.686	0.000	-0.000	-21.670	-19.406	128.700	-0.370	-27.005	-121.438	-6.461	-0.000	0.000	-29.981	-19.561	124.408	0.667	-2.827	3.189	1.607	2.827	-3.189	1.607	NaN	NaN	NaN	NaN	NaN	NaN	-399.152	860.223	280.398	-569.567	874.948	276.900
410	1.70417	-573.495	1651.591	226.203	-427.038	1658.233	228.210	-524.105	1534.180	342.787	-486.718	1421.424	359.837	-474.907	1214.718	397.276	-492.305	1364.881	215.386	-483.414	1149.716	166.197	-397.284	1355.471	388.708	-644.118	1427.955	327.129	-737.584	1276.271	303.296	-813.823	1209.359	271.071	-899.479	1141.838	255.023	-997.529	1099.342	242.219	-968.612	1058.552	213.822	-1014.986	1021.562	244.497	-326.598	1423.207	333.318	-252.537	1271.980	337.197	-200.006	1181.329	331.505	-101.332	1106.297	325.825	-3.219	1065.588	318.085	-36.020	1032.281	319.827	18.845	1010.319	354.976	-612.554	950.726	198.739	-354.548	931.631	210.665	-542.624	990.669	384.763	-427.511	980.637	387.168	-488.750	966.249	399.906	-704.217	663.785	282.739	-681.817	494.806	327.883	-552.463	469.985	335.129	-725.309	266.159	352.247	-685.238	95.458	374.947	-605.373	99.583	347.348	-645.346	86.333	425.616	-662.921	71.117	219.352	-265.209	639.600	292.192	-264.422	493.170	305.158	-395.654	461.486	317.568	-185.900	267.664	353.035	-193.258	95.043	357.284	-277.264	97.242	349.861	-230.549	84.858	424.640	-216.821	65.636	217.724	-492.437	856.575	261.491	-485.845	833.334	81.650	-673.207	869.954	253.135	-478.107	1036.039	238.823	-617.187	488.160	323.791	-647.551	424.321	-52.117	-996.925	527.210	347.833	-582.822	863.264	257.313	-649.317	97.313	362.534	-769.016	72.449	12.431	-998.997	137.627	479.225	-619.082	465.110	326.076	-675.783	85.803	221.892	-653.445	285.066	219.989	-874.326	108.221	238.810	-658.758	85.803	421.688	-681.457	85.803	155.293	-674.012	152.224	154.659	-747.639	93.275	160.932	-675.783	85.803	221.892	-326.704	481.344	312.330	-359.485	427.322	-61.413	-696.738	411.086	354.941	-402.052	849.885	265.668	-232.093	96.059	353.853	-199.947	63.711	-19.552	-596.121	4.149	330.476	-321.316	459.400	314.695	-206.759	86.555	212.285	-255.834	281.754	209.029	-401.530	37.372	199.362	-220.085	86.555	413.142	-202.317	86.555	145.332	-218.676	151.622	144.247	-267.241	70.161	141.025	-206.759	86.555	212.285	NaN	NaN	NaN	NaN	NaN	NaN	NaN	NaN	NaN	NaN	NaN	NaN	-652.137	1372.249	318.098	-744.493	1411.102	160.457	-625.859	1554.796	347.693	-491.920	1364.706	222.373	-319.282	1368.672	322.907	-222.115	1413.903	154.266	-293.177	1174.083	285.757	-491.920	1364.705	222.373	-491.920	1364.706	222.373	-502.565	1369.557	29.425	-299.143	1374.455	211.982	-482.449	1171.710	216.998	-802.318	1221.685	230.268	-685.875	1221.298	31.826	-932.029	1395.662	153.816	-652.137	1372.249	318.098	-985.167	1081.698	221.934	-936.048	1029.563	19.956	-1105.982	1243.744	150.726	-815.117	1211.886	229.684	-1061.865	969.751	232.991	-996.490	936.284	347.635	-970.320	899.859	160.385	-985.167	1081.698	221.934	-213.464	1181.927	287.784	-386.759	1103.577	182.262	-291.414	1102.603	474.696	-319.282	1368.672	322.907	-19.103	1048.064	312.029	-117.866	884.644	201.488	-98.178	967.595	501.638	-199.859	1172.556	289.481	66.132	961.066	361.849	33.886	999.192	483.596	161.058	1052.134	358.473	-19.103	1048.063	312.029	NaN	NaN	NaN	-482.934	1381.757	366.483	-474.180	1529.442	329.808	NaN	NaN	NaN	0.527	-6.433	2.861	-0.810	-14.732	4.324	0.000	0.000	-5.223	0.006	13.560	-5.373	15.985	7.234	-0.581	2.339	-10.324	0.832	-0.008	-0.205	-5.058	0.000	0.000	-5.058	-4.530	2.089	-7.199	4.530	-2.089	-7.199	6.419	-4.870	90.000	14.142	-3.796	90.000	NaN	NaN	NaN	NaN	NaN	NaN	7.779	-4.808	8.425	-7.779	4.808	8.425	-46.391	-155.382	-23.613	0.000	-0.000	-21.677	-19.337	128.704	-0.342	-26.967	-121.497	-6.480	0.000	-0.000	-29.939	-19.532	124.440	0.611	-2.808	3.161	1.595	2.808	-3.161	1.595	NaN	NaN	NaN	NaN	NaN	NaN	-399.065	860.054	280.380	-569.314	874.892	276.822
411	1.70833	-573.650	1651.656	226.083	-426.973	1658.327	228.245	-524.171	1534.196	342.728	-486.767	1421.476	359.664	-474.969	1214.804	397.266	-492.148	1364.965	215.309	-483.262	1149.631	166.226	-397.386	1355.524	388.701	-644.235	1427.905	326.892	-737.584	1276.133	303.260	-813.745	1209.131	271.097	-899.474	1141.593	255.191	-997.577	1099.149	242.485	-968.712	1058.340	213.980	-1014.970	1021.347	244.738	-326.430	1423.110	333.148	-252.716	1272.030	337.258	-200.304	1181.220	331.562	-101.716	1105.979	325.837	-3.475	1065.008	317.999	-36.498	1031.797	319.924	18.234	1009.768	354.998	-612.554	950.833	198.801	-354.473	931.678	210.824	-542.713	990.654	384.806	-427.613	980.706	387.290	-488.821	966.229	399.942	-704.174	663.785	282.682	-682.042	495.005	328.063	-552.541	470.017	335.094	-725.250	266.058	352.171	-685.240	95.462	374.942	-605.350	99.685	347.467	-645.304	86.280	425.580	-662.949	71.126	219.353	-265.102	639.581	292.333	-264.509	493.201	305.307	-395.437	461.390	317.215	-185.891	267.699	353.116	-193.328	94.893	357.191	-277.242	97.248	349.854	-230.563	84.899	424.651	-216.890	65.633	217.767	-492.439	856.627	261.559	-485.780	833.468	81.709	-673.202	870.044	253.138	-478.066	1036.099	238.980	-617.400	488.352	324.177	-646.613	424.057	-51.705	-997.170	527.441	347.006	-582.820	863.336	257.348	-649.303	97.361	362.583	-768.497	72.670	12.199	-999.270	137.334	478.818	-619.281	465.299	326.441	-675.806	85.836	221.949	-653.672	285.122	220.055	-874.366	108.050	238.939	-658.711	85.836	421.739	-681.504	85.836	155.352	-674.126	152.264	154.721	-747.691	93.241	161.016	-675.806	85.836	221.949	-326.796	481.389	312.472	-359.535	427.342	-61.248	-696.827	411.215	355.036	-402.057	849.919	265.769	-232.165	95.983	353.795	-200.409	63.728	-19.751	-596.326	4.100	330.772	-321.407	459.443	314.825	-206.868	86.477	212.221	-255.916	281.682	208.979	-401.649	37.322	199.348	-220.143	86.477	413.082	-202.443	86.477	145.267	-218.792	151.545	144.187	-267.370	70.092	140.976	-206.868	86.477	212.221	NaN	NaN	NaN	NaN	NaN	NaN	NaN	NaN	NaN	NaN	NaN	NaN	-652.171	1372.184	317.881	-744.443	1410.848	160.050	-626.152	1554.859	347.420	-491.770	1364.793	222.297	-319.210	1368.552	322.792	-221.996	1413.418	154.189	-293.462	1173.967	285.858	-491.770	1364.793	222.297	-491.770	1364.793	222.297	-502.192	1369.532	29.339	-298.986	1374.519	212.123	-482.311	1171.799	217.046	-802.244	1221.401	230.275	-685.342	1220.179	32.122	-931.644	1395.168	152.864	-652.171	1372.184	317.881	-985.250	1081.502	222.153	-935.768	1028.485	20.430	-1105.816	1243.406	150.026	-815.054	1211.608	229.707	-1061.822	969.521	233.293	-996.179	936.019	347.729	-970.418	899.772	160.441	-985.250	1081.502	222.153	-213.843	1181.754	287.864	-387.277	1103.554	182.883	-291.521	1102.969	474.880	-319.210	1368.552	322.792	-19.491	1047.508	312.036	-118.793	883.909	201.870	-98.431	967.444	502.090	-200.238	1172.357	289.556	65.166	960.342	361.908	33.394	998.973	483.358	160.432	1050.683	358.095	-19.491	1047.508	312.036	NaN	NaN	NaN	-483.052	1381.798	366.410	-474.311	1529.439	329.988	NaN	NaN	NaN	0.542	-6.273	2.945	-0.871	-14.828	4.427	0.000	0.000	-5.174	0.006	13.461	-5.321	15.987	7.247	-0.552	2.354	-10.262	0.868	-0.008	-0.248	-5.031	0.000	0.000	-5.031	-4.543	2.110	-7.170	4.543	-2.110	-7.170	6.360	-4.891	90.000	14.134	-3.781	90.000	NaN	NaN	NaN	NaN	NaN	NaN	7.777	-4.767	8.368	-7.777	4.767	8.368	-46.357	-155.190	-23.529	0.000	-0.000	-21.706	-19.421	128.309	-0.207	-26.855	-121.322	-6.502	0.000	0.000	-29.936	-19.694	124.528	0.755	-2.805	3.095	1.558	2.805	-3.095	1.558	NaN	NaN	NaN	NaN	NaN	NaN	-398.995	860.189	280.573	-569.307	874.910	276.897
412	1.71250	-573.656	1651.646	225.937	-427.073	1658.211	227.930	-524.328	1534.299	342.649	-486.952	1421.526	359.569	-475.104	1214.867	397.320	-492.157	1364.688	215.584	-483.230	1149.616	166.171	-397.466	1355.567	388.670	-644.350	1427.734	326.650	-737.578	1275.966	303.228	-813.676	1208.908	271.126	-899.429	1141.353	255.333	-997.514	1098.848	242.643	-968.678	1058.096	214.245	-1014.994	1021.061	244.998	-326.628	1423.273	333.295	-252.931	1271.967	337.249	-200.497	1181.137	331.473	-102.077	1105.635	325.799	-4.061	1064.463	318.072	-37.079	1031.351	320.026	17.508	1009.360	355.307	-612.493	950.900	198.829	-354.348	931.660	211.026	-542.706	990.690	384.766	-427.651	980.710	387.389	-488.872	966.259	400.023	-704.164	663.779	282.638	-681.786	494.813	327.833	-552.498	470.027	335.138	-725.223	266.079	352.135	-685.234	95.446	374.936	-605.373	99.545	347.353	-645.311	86.266	425.565	-662.940	71.110	219.343	-265.107	639.674	292.501	-264.406	493.022	305.202	-395.436	461.440	317.269	-185.890	267.705	353.155	-193.287	94.962	357.136	-277.268	97.259	349.877	-230.650	84.902	424.675	-216.874	65.636	217.694	-492.409	856.656	261.671	-485.638	833.489	81.827	-673.163	870.128	253.130	-477.966	1036.123	239.095	-617.146	488.190	323.857	-646.820	424.300	-52.190	-997.031	527.117	347.221	-582.786	863.392	257.400	-649.311	97.290	362.529	-768.984	72.495	12.360	-999.049	137.610	479.199	-619.042	465.140	326.138	-675.815	85.779	221.894	-653.479	285.042	219.984	-874.354	108.196	238.865	-658.736	85.779	421.685	-681.508	85.779	155.297	-674.062	152.200	154.660	-747.687	93.252	160.954	-675.815	85.779	221.894	-326.710	481.165	312.140	-358.223	427.859	-61.964	-697.009	410.693	353.374	-402.032	849.920	265.941	-232.128	96.025	353.779	-200.751	63.371	-19.528	-596.090	4.204	331.219	-321.321	459.221	314.513	-206.766	86.518	212.216	-255.810	281.725	208.952	-401.541	37.366	199.253	-220.134	86.518	413.071	-202.310	86.518	145.264	-218.658	151.587	144.176	-267.235	70.134	140.943	-206.766	86.518	212.216	NaN	NaN	NaN	NaN	NaN	NaN	NaN	NaN	NaN	NaN	NaN	NaN	-652.294	1372.015	317.633	-744.032	1410.654	159.685	-626.274	1554.517	347.166	-491.784	1364.513	222.572	-319.261	1368.737	322.925	-222.313	1413.884	154.356	-292.999	1174.323	285.959	-491.784	1364.513	222.572	-491.784	1364.513	222.572	-502.064	1369.339	29.740	-299.127	1374.281	212.546	-482.284	1171.655	217.239	-802.157	1221.106	230.288	-685.038	1219.308	32.446	-931.330	1394.556	152.243	-652.294	1372.015	317.633	-985.201	1081.221	222.361	-935.480	1027.578	20.848	-1105.643	1242.947	149.591	-814.970	1211.314	229.733	-1061.904	969.209	233.592	-996.295	935.773	348.195	-970.425	899.269	160.816	-985.201	1081.221	222.361	-213.923	1181.802	287.742	-387.097	1104.196	181.597	-292.622	1102.359	474.220	-319.261	1368.737	322.925	-20.074	1047.004	312.126	-119.301	884.185	200.885	-99.972	966.350	501.445	-200.354	1172.366	289.449	64.366	959.895	362.498	32.349	998.977	483.754	159.762	1050.117	358.607	-20.074	1047.004	312.126	NaN	NaN	NaN	-483.126	1381.836	366.289	-479.067	1531.920	339.869	NaN	NaN	NaN	0.486	-6.381	2.883	-0.796	-14.830	4.331	0.000	0.000	-5.210	0.006	13.539	-5.360	16.010	7.098	-0.645	2.337	-9.988	0.748	-0.008	-0.345	-5.074	0.000	0.000	-5.074	-4.565	2.145	-7.170	4.565	-2.145	-7.170	6.419	-4.886	90.000	14.133	-3.808	90.000	NaN	NaN	NaN	NaN	NaN	NaN	7.808	-4.759	8.396	-7.808	4.759	8.396	-46.317	-155.013	-23.424	0.000	0.000	-21.726	-19.388	128.195	-0.142	-26.812	-121.616	-6.562	0.000	0.000	-29.860	-19.785	124.961	0.422	-2.819	3.054	1.584	2.819	-3.054	1.584	NaN	NaN	NaN	NaN	NaN	NaN	-398.995	860.161	280.781	-569.349	874.938	276.896
